<svg width="90" height="90" viewBox="0 0 90 90" fill="none" xmlns="http://www.w3.org/2000/svg">
<path d="M18 12C14.685 12 12 14.685 12 18V72C12 75.315 14.685 78 18 78H72C75.315 78 78 75.315 78 72V18C78 14.685 75.315 12 72 12H18ZM52.5 33H60.1699C60.9979 33 61.6699 33.672 61.6699 34.5C61.6699 35.328 60.9979 36 60.1699 36H52.5C51.672 36 51 35.328 51 34.5C51 33.672 51.672 33 52.5 33ZM26.7598 34.1543H35.1152C40.0472 34.1543 42.9902 36.5671 42.9902 40.4941C42.9902 43.1881 40.9976 45.5388 38.3906 45.9258V46.2422C41.7566 46.4882 44.2031 49.0248 44.2031 52.3008C44.2061 56.7558 40.8411 59.5781 35.4141 59.5781H26.7598C25.2358 59.5781 24 58.3424 24 56.8184V36.9141C24 35.3901 25.2358 34.1543 26.7598 34.1543ZM29.3203 38.2207V44.6895H33.3164C36.1904 44.6925 37.7578 43.5098 37.7578 41.4668C37.7578 39.4418 36.2997 38.2207 33.7617 38.2207H29.3203ZM56.8887 39.7207C62.6157 39.7207 65.9941 43.3702 65.9941 49.5352V51.0996H52.6641V51.3633C52.7331 54.2523 54.4265 56.0508 57.1055 56.0508C59.1305 56.0508 60.5204 55.3309 61.0664 54.0469H65.8418C65.0678 57.7129 61.717 60 56.959 60C51.04 60 47.5547 56.263 47.5547 49.957C47.5547 43.633 51.1107 39.7207 56.8887 39.7207ZM56.9121 43.6523C54.5331 43.6523 52.8556 45.3042 52.6816 47.8242H60.9609C60.8529 45.2532 59.3061 43.6523 56.9121 43.6523ZM29.3203 48.2871V55.5117H34.0605C37.1265 55.5117 38.7832 54.2197 38.7832 51.8438C38.7832 49.5157 37.0725 48.2871 33.9375 48.2871H29.3203Z" fill="#78716A"/>
</svg>
