<svg width="70" height="70" viewBox="0 0 70 70" fill="none" xmlns="http://www.w3.org/2000/svg">
<path d="M65.9414 0.970732C65.8296 0.974265 65.7181 0.984046 65.6074 1.00003H48C47.6025 0.994407 47.2078 1.06785 46.8389 1.21609C46.47 1.36433 46.1342 1.58442 45.8511 1.86355C45.568 2.14268 45.3432 2.4753 45.1897 2.84207C45.0363 3.20884 44.9573 3.60245 44.9573 4.00003C44.9573 4.3976 45.0363 4.79122 45.1897 5.15799C45.3432 5.52476 45.568 5.85738 45.8511 6.13651C46.1342 6.41564 46.47 6.63573 46.8389 6.78397C47.2078 6.93221 47.6025 7.00565 48 7.00003H58.7578L27.8789 37.8789C27.591 38.1554 27.3611 38.4865 27.2028 38.8529C27.0444 39.2193 26.9607 39.6136 26.9567 40.0127C26.9526 40.4118 27.0282 40.8077 27.1791 41.1773C27.33 41.5468 27.5531 41.8825 27.8353 42.1647C28.1175 42.447 28.4532 42.6701 28.8228 42.8209C29.1923 42.9718 29.5882 43.0474 29.9874 43.0434C30.3865 43.0393 30.7808 42.9556 31.1472 42.7973C31.5136 42.6389 31.8447 42.4091 32.1211 42.1211L63 11.2422V22C62.9944 22.3976 63.0678 22.7923 63.2161 23.1612C63.3643 23.5301 63.5844 23.8658 63.8635 24.1489C64.1427 24.432 64.4753 24.6569 64.842 24.8103C65.2088 24.9637 65.6024 25.0428 66 25.0428C66.3976 25.0428 66.7912 24.9637 67.158 24.8103C67.5247 24.6569 67.8574 24.432 68.1365 24.1489C68.4156 23.8658 68.6357 23.5301 68.7839 23.1612C68.9322 22.7923 69.0056 22.3976 69 22V4.38089C69.0598 3.94896 69.0246 3.50921 68.8971 3.09224C68.7696 2.67527 68.5527 2.29111 68.2615 1.96651C67.9704 1.6419 67.612 1.38466 67.2113 1.21269C66.8106 1.04072 66.3773 0.958148 65.9414 0.970732V0.970732ZM6 13C2.72081 13 0 15.7208 0 19V64C0 67.2792 2.72081 70 6 70H51C54.2792 70 57 67.2792 57 64V34V26.2657L51 32.2657V40V64H6V19H30H36H37.7344L43.7344 13H36H30H6Z" fill="#78716A"/>
</svg>
