<svg width="53" height="63" viewBox="0 0 53 63" fill="none" xmlns="http://www.w3.org/2000/svg">
<path d="M49.9142 16.3803L30.9363 3.58014C28.6155 2.01479 25.5852 1.98268 23.2317 3.49851L3.20962 16.3943C1.20897 17.6829 0 19.8996 0 22.2793V43.7396C0 46.2752 1.37126 48.6126 3.58463 49.8498L23.6154 61.0462C25.7811 62.2567 28.4258 62.2304 30.5669 60.9771L49.5361 49.8737C51.6816 48.6179 53 46.3185 53 43.8325V22.1836C53 19.8565 51.8435 17.6815 49.9142 16.3803Z" fill="#57534E"/>
<path d="M24.388 22.756C24.988 21.82 25.816 21.064 26.872 20.488C27.928 19.912 29.164 19.624 30.58 19.624C32.236 19.624 33.736 20.044 35.08 20.884C36.424 21.724 37.48 22.924 38.248 24.484C39.04 26.044 39.436 27.856 39.436 29.92C39.436 31.984 39.04 33.808 38.248 35.392C37.48 36.952 36.424 38.164 35.08 39.028C33.736 39.868 32.236 40.288 30.58 40.288C29.188 40.288 27.952 40 26.872 39.424C25.816 38.848 24.988 38.104 24.388 37.192V49.576H18.232V19.912H24.388V22.756ZM33.172 29.92C33.172 28.384 32.74 27.184 31.876 26.32C31.036 25.432 29.992 24.988 28.744 24.988C27.52 24.988 26.476 25.432 25.612 26.32C24.772 27.208 24.352 28.42 24.352 29.956C24.352 31.492 24.772 32.704 25.612 33.592C26.476 34.48 27.52 34.924 28.744 34.924C29.968 34.924 31.012 34.48 31.876 33.592C32.74 32.68 33.172 31.456 33.172 29.92Z" fill="#1D2634"/>
</svg>
