<svg width="109" height="35" viewBox="0 0 109 35" fill="none" xmlns="http://www.w3.org/2000/svg">
<path d="M0.34 4.348L5.704 3.484V9.064H12.148V13.528H5.704V20.188C5.704 21.316 5.896 22.216 6.28 22.888C6.688 23.56 7.492 23.896 8.692 23.896C9.268 23.896 9.856 23.848 10.456 23.752C11.08 23.632 11.644 23.476 12.148 23.284L12.904 27.46C12.256 27.724 11.536 27.952 10.744 28.144C9.952 28.336 8.98 28.432 7.828 28.432C6.364 28.432 5.152 28.24 4.192 27.856C3.232 27.448 2.464 26.896 1.888 26.2C1.312 25.48 0.904 24.616 0.664 23.608C0.448 22.6 0.34 21.484 0.34 20.26V4.348ZM21.8801 28H16.5161V9.064H21.8801V28ZM22.3841 3.592C22.3841 4.576 22.0601 5.356 21.4121 5.932C20.7881 6.484 20.0441 6.76 19.1801 6.76C18.3161 6.76 17.5601 6.484 16.9121 5.932C16.2881 5.356 15.9761 4.576 15.9761 3.592C15.9761 2.608 16.2881 1.84 16.9121 1.288C17.5601 0.711999 18.3161 0.423999 19.1801 0.423999C20.0441 0.423999 20.7881 0.711999 21.4121 1.288C22.0601 1.84 22.3841 2.608 22.3841 3.592ZM26.9223 9.712C27.8343 9.448 29.0103 9.208 30.4503 8.992C31.8903 8.752 33.4023 8.632 34.9863 8.632C36.5943 8.632 37.9263 8.848 38.9823 9.28C40.0623 9.688 40.9143 10.276 41.5383 11.044C42.1623 11.812 42.6063 12.724 42.8703 13.78C43.1343 14.836 43.2663 16.012 43.2663 17.308V28H37.9023V17.956C37.9023 16.228 37.6743 15.004 37.2183 14.284C36.7623 13.564 35.9103 13.204 34.6623 13.204C34.2783 13.204 33.8703 13.228 33.4383 13.276C33.0063 13.3 32.6223 13.336 32.2863 13.384V28H26.9223V9.712ZM52.6936 18.388C52.6936 20.044 53.0656 21.376 53.8096 22.384C54.5536 23.392 55.6576 23.896 57.1216 23.896C57.6016 23.896 58.0456 23.884 58.4536 23.86C58.8616 23.812 59.1976 23.764 59.4616 23.716V13.96C59.1256 13.744 58.6816 13.564 58.1296 13.42C57.6016 13.276 57.0616 13.204 56.5096 13.204C53.9656 13.204 52.6936 14.932 52.6936 18.388ZM64.8256 27.388C64.3456 27.532 63.7936 27.676 63.1696 27.82C62.5456 27.94 61.8856 28.048 61.1896 28.144C60.5176 28.24 59.8216 28.312 59.1016 28.36C58.4056 28.432 57.7336 28.468 57.0856 28.468C55.5256 28.468 54.1336 28.24 52.9096 27.784C51.6856 27.328 50.6536 26.68 49.8136 25.84C48.9736 24.976 48.3256 23.944 47.8696 22.744C47.4376 21.52 47.2216 20.152 47.2216 18.64C47.2216 17.104 47.4136 15.724 47.7976 14.5C48.1816 13.252 48.7336 12.196 49.4536 11.332C50.1736 10.468 51.0496 9.808 52.0816 9.352C53.1376 8.896 54.3376 8.668 55.6816 8.668C56.4256 8.668 57.0856 8.74 57.6616 8.884C58.2616 9.028 58.8616 9.232 59.4616 9.496V0.927999L64.8256 0.0639992V27.388ZM87.5601 18.496C87.5601 19.984 87.3441 21.352 86.9121 22.6C86.4801 23.824 85.8561 24.88 85.0401 25.768C84.2241 26.632 83.2401 27.304 82.0881 27.784C80.9601 28.264 79.6881 28.504 78.2721 28.504C76.8801 28.504 75.6081 28.264 74.4561 27.784C73.3281 27.304 72.3561 26.632 71.5401 25.768C70.7241 24.88 70.0881 23.824 69.6321 22.6C69.1761 21.352 68.9481 19.984 68.9481 18.496C68.9481 17.008 69.1761 15.652 69.6321 14.428C70.1121 13.204 70.7601 12.16 71.5761 11.296C72.4161 10.432 73.4001 9.76 74.5281 9.28C75.6801 8.8 76.9281 8.56 78.2721 8.56C79.6401 8.56 80.8881 8.8 82.0161 9.28C83.1681 9.76 84.1521 10.432 84.9681 11.296C85.7841 12.16 86.4201 13.204 86.8761 14.428C87.3321 15.652 87.5601 17.008 87.5601 18.496ZM82.0881 18.496C82.0881 16.84 81.7521 15.544 81.0801 14.608C80.4321 13.648 79.4961 13.168 78.2721 13.168C77.0481 13.168 76.1001 13.648 75.4281 14.608C74.7561 15.544 74.4201 16.84 74.4201 18.496C74.4201 20.152 74.7561 21.472 75.4281 22.456C76.1001 23.416 77.0481 23.896 78.2721 23.896C79.4961 23.896 80.4321 23.416 81.0801 22.456C81.7521 21.472 82.0881 20.152 82.0881 18.496ZM96.2873 17.92C96.2873 20.92 97.4993 22.42 99.9233 22.42C100.475 22.42 100.991 22.348 101.471 22.204C101.951 22.06 102.359 21.892 102.695 21.7V13.132C102.431 13.084 102.119 13.048 101.759 13.024C101.399 12.976 100.979 12.952 100.499 12.952C99.0833 12.952 98.0273 13.42 97.3313 14.356C96.6353 15.292 96.2873 16.48 96.2873 17.92ZM108.059 25.624C108.059 28.72 107.267 31.012 105.683 32.5C104.123 34.012 101.699 34.768 98.4113 34.768C97.2593 34.768 96.1073 34.66 94.9553 34.444C93.8033 34.252 92.7353 33.988 91.7513 33.652L92.6873 29.152C93.5273 29.488 94.4033 29.752 95.3153 29.944C96.2513 30.136 97.3073 30.232 98.4833 30.232C100.019 30.232 101.099 29.896 101.723 29.224C102.371 28.552 102.695 27.688 102.695 26.632V25.948C102.119 26.212 101.519 26.416 100.895 26.56C100.295 26.68 99.6353 26.74 98.9153 26.74C96.2993 26.74 94.2953 25.972 92.9033 24.436C91.5113 22.876 90.8153 20.704 90.8153 17.92C90.8153 16.528 91.0313 15.268 91.4633 14.14C91.8953 12.988 92.5193 12.004 93.3353 11.188C94.1753 10.372 95.1953 9.748 96.3953 9.316C97.5953 8.86 98.9513 8.632 100.463 8.632C101.111 8.632 101.771 8.668 102.443 8.74C103.139 8.788 103.823 8.86 104.495 8.956C105.167 9.052 105.803 9.172 106.403 9.316C107.027 9.436 107.579 9.568 108.059 9.712V25.624Z" fill="#FF4C68"/>
</svg>
